<svg width="183" height="103" viewBox="0 0 183  103" xmlns="http://www.w3.org/2000/svg">
  <defs>
    <mask id="s-mask">
      <!-- White background (everything visible) -->
      <rect width="100%" height="200%" fill="white"/>
      <!-- Black "S" path (cut-out effect) -->
      <path d="M8.50448 28.1679C4.07185 35.7325 1.92984 43.9508 2.07846 52.8228C2.2298 61.8575 4.56514 70.0415 9.08449 77.3747C13.6038 84.7079 19.6858 90.5495 27.3304 94.8993C34.9737 99.1678 43.5569 101.222 53.08 101.063C62.9286 100.898 71.1899 98.3169 77.8638 93.3201C84.5391 88.4047 94.6273 73.3771 94.6273 73.3771C94.6273 73.3771 95.572 71.448 96.7533 69.0671C98.0161 66.6849 99.3962 64.0157 100.894 61.0596C102.474 58.1836 103.895 55.5544 105.158 53.1722C106.421 50.7899 107.209 49.2705 107.524 48.6139C110.758 42.3721 114.186 38.0403 117.809 35.6185C121.434 33.2781 125.973 32.0622 131.426 31.9709C136.798 31.8809 141.468 33.6345 145.436 37.2318C149.405 40.8291 151.432 45.1917 151.518 50.3195C151.602 55.3659 149.844 59.7512 146.242 63.4752C142.641 67.1993 137.91 69.1105 132.05 69.2086L111.543 69.7964C110.892 69.8073 110.571 70.1383 110.582 70.7895L111.053 98.8704C111.064 99.5215 111.395 99.8417 112.046 99.8307L132.557 99.4872C141.755 99.3331 150.019 96.9557 157.351 92.3549C164.684 87.8356 170.527 81.835 174.88 74.3532C179.151 66.8727 181.212 58.6965 181.064 49.8246C180.919 41.1968 178.587 33.2163 174.068 25.8831C169.631 18.6299 163.671 12.7863 156.188 8.35231C148.624 3.91968 140.202 1.78109 130.923 1.93652C120.83 2.10558 111.751 4.45593 103.685 8.98754C95.7021 13.5992 89.1009 20.5081 83.8816 29.7142C82.5402 32.2606 81.1187 34.8897 79.6172 37.6016C78.1971 40.3122 76.7377 43.1048 75.2389 45.9795C73.7402 48.8542 72.3974 51.3192 71.2106 53.3745C70.1065 55.5098 69.1584 57.2354 68.3663 58.5514C63.9418 66.6043 58.6773 70.6819 52.5728 70.7842C47.2822 70.8728 42.5713 69.1199 38.4403 65.5253C34.3906 61.9294 32.3222 57.5268 32.2349 52.3176C32.149 47.1898 34.0289 42.7618 37.8744 39.0336C41.8014 35.3041 46.4915 33.3936 51.9449 33.3023L63.4215 33.11C64.3168 33.095 64.759 32.762 64.7481 32.1108L64.2777 4.0299C64.2641 3.21596 63.8096 2.81649 62.9143 2.83149L51.4377 3.02373C42.3216 3.17644 33.9748 5.51451 26.3974 10.0379C18.9028 14.6414 12.9385 20.6847 8.50448 28.1679Z" fill="black"/>
    </mask>
  </defs>
  <!-- Black background with S-mask applied -->
  <rect width="100%" height="100%" fill="black" mask="url(#s-mask)"/>
</svg>
