<svg width="850" height="267" viewBox="0 0 850 267" fill="none" xmlns="http://www.w3.org/2000/svg">
<path fill-rule="evenodd" clip-rule="evenodd" d="M442.903 92.4331C435.339 88.0005 427.12 85.8585 418.248 86.0071C409.214 86.1585 401.03 88.4938 393.697 93.0131C386.363 97.5325 380.522 103.614 376.172 111.259C371.903 118.902 369.849 127.486 370.008 137.009C370.173 146.857 372.754 155.119 377.751 161.792C382.667 168.468 397.694 178.556 397.694 178.556L441.357 167.81C438.811 166.469 436.181 165.047 433.47 163.546C430.759 162.126 427.966 160.666 425.092 159.168C422.217 157.669 419.752 156.326 417.697 155.139C415.561 154.035 413.836 153.087 412.52 152.295C404.467 147.87 400.389 142.606 400.287 136.501C400.198 131.211 401.951 126.5 405.546 122.369C409.142 118.319 413.544 116.251 418.754 116.164C423.881 116.078 428.309 117.957 432.038 121.803C435.767 125.73 437.678 130.42 437.769 135.874L437.961 147.35C437.976 148.245 438.309 148.688 438.96 148.677L467.041 148.206C467.855 148.193 468.255 147.738 468.24 146.843L468.047 135.366C467.895 126.25 465.557 117.903 461.033 110.326C456.43 102.831 450.386 96.8671 442.903 92.4331Z" fill="#66D9CC"/>
<path d="M441.357 167.81C438.811 166.469 436.181 165.047 433.47 163.546C430.759 162.126 427.966 160.666 425.092 159.168C422.217 157.669 419.752 156.326 417.697 155.139C415.561 154.035 413.836 153.087 412.52 152.295C404.467 147.87 400.389 142.606 400.287 136.501C400.198 131.211 401.951 126.5 405.546 122.369C409.142 118.319 413.544 116.251 418.754 116.164C423.881 116.078 428.309 117.957 432.038 121.803C435.767 125.73 437.678 130.42 437.769 135.874L437.961 147.35C437.976 148.245 438.309 148.688 438.96 148.677L467.041 148.206C467.855 148.193 468.255 147.738 468.24 146.843L468.047 135.366C467.895 126.25 465.557 117.903 461.033 110.326C456.43 102.831 450.386 96.8671 442.903 92.4331C435.339 88.0005 427.12 85.8585 418.248 86.0071C409.214 86.1585 401.03 88.4938 393.697 93.0131C386.363 97.5325 380.522 103.614 376.172 111.259C371.903 118.902 369.849 127.486 370.008 137.009C370.173 146.857 372.754 155.119 377.751 161.792C382.667 168.468 397.694 178.556 397.694 178.556M441.357 167.81C450.563 173.03 457.472 179.631 462.084 187.614C466.615 195.679 468.966 204.759 469.135 214.852C469.29 224.131 467.152 232.552 462.719 240.117C458.285 247.6 452.441 253.56 445.188 257.997C437.855 262.516 429.874 264.848 421.247 264.992C412.375 265.141 404.199 263.08 396.718 258.808C389.236 254.456 383.236 248.613 378.716 241.28C374.116 233.948 371.738 225.683 371.584 216.486L371.24 195.974C371.23 195.323 371.55 194.992 372.201 194.981L400.282 194.511C400.933 194.5 401.264 194.82 401.275 195.471L401.863 215.979C401.961 221.839 403.872 226.57 407.596 230.171C411.32 233.772 415.705 235.531 420.752 235.446C425.88 235.36 430.242 233.333 433.839 229.365C437.437 225.397 439.19 220.727 439.1 215.355C439.009 209.901 437.793 205.362 435.453 201.738C433.031 198.115 428.699 194.686 422.457 191.453C421.801 191.138 420.281 190.349 417.899 189.087C415.517 187.824 412.888 186.402 410.012 184.822C407.055 183.325 404.386 181.945 402.004 180.682C399.623 179.501 397.694 178.556 397.694 178.556M441.357 167.81L397.694 178.556" stroke="#66D9CC" stroke-width="3.75116"/>
<path d="M44.7266 245.953C37.5 245.953 30.8919 244.13 24.9023 240.484C18.9779 236.839 14.2578 231.956 10.7422 225.836C7.29167 219.651 5.56641 212.783 5.56641 205.23L5.76172 142.828C5.76172 135.406 7.45443 128.701 10.8398 122.711C14.2253 116.656 18.8802 111.806 24.8047 108.16C30.7943 104.449 37.4349 102.594 44.7266 102.594C52.1484 102.594 58.7565 104.384 64.5508 107.965C70.4102 111.546 75.0651 116.396 78.5156 122.516C82.0312 128.57 83.7891 135.341 83.7891 142.828V152.008C83.7891 152.529 83.5286 152.789 83.0078 152.789H60.5469C60.026 152.789 59.7656 152.529 59.7656 152.008V142.828C59.7656 138.401 58.3333 134.592 55.4688 131.402C52.6042 128.212 49.0234 126.617 44.7266 126.617C39.974 126.617 36.3281 128.245 33.7891 131.5C31.25 134.755 29.9805 138.531 29.9805 142.828V205.23C29.9805 210.113 31.4128 214.117 34.2773 217.242C37.1419 220.302 40.625 221.832 44.7266 221.832C49.0234 221.832 52.6042 220.139 55.4688 216.754C58.3333 213.303 59.7656 209.462 59.7656 205.23V195.953C59.7656 195.432 60.026 195.172 60.5469 195.172H83.2031C83.724 195.172 83.9844 195.432 83.9844 195.953V205.23C83.9844 212.717 82.2266 219.553 78.7109 225.738C75.1302 231.858 70.4102 236.773 64.5508 240.484C58.6914 244.13 52.0833 245.953 44.7266 245.953ZM135.547 245.953C128.451 245.953 121.908 244.13 115.918 240.484C109.993 236.839 105.208 231.988 101.562 225.934C97.9818 219.814 96.1914 213.108 96.1914 205.816L96.3867 142.438C96.3867 135.016 98.1771 128.342 101.758 122.418C105.273 116.428 110.026 111.643 116.016 108.062C122.005 104.417 128.516 102.594 135.547 102.594C142.839 102.594 149.382 104.384 155.176 107.965C161.035 111.546 165.723 116.363 169.238 122.418C172.819 128.408 174.609 135.081 174.609 142.438L174.805 205.816C174.805 213.108 173.047 219.781 169.531 225.836C165.951 231.956 161.198 236.839 155.273 240.484C149.349 244.13 142.773 245.953 135.547 245.953ZM135.547 221.832C139.583 221.832 143.099 220.204 146.094 216.949C149.089 213.629 150.586 209.918 150.586 205.816L150.391 142.438C150.391 138.01 148.991 134.267 146.191 131.207C143.392 128.147 139.844 126.617 135.547 126.617C131.445 126.617 127.93 128.115 125 131.109C122.07 134.104 120.605 137.88 120.605 142.438V205.816C120.605 210.178 122.07 213.954 125 217.145C127.93 220.27 131.445 221.832 135.547 221.832ZM226.758 243.805L190.918 244C190.267 244 189.941 243.674 189.941 243.023L190.332 105.621C190.332 105.1 190.592 104.84 191.113 104.84L228.516 104.645C235.938 104.449 242.643 106.142 248.633 109.723C254.688 113.303 259.505 118.154 263.086 124.273C266.732 130.328 268.555 137.034 268.555 144.391V201.812C268.555 209.495 266.699 216.526 262.988 222.906C259.212 229.221 254.199 234.267 247.949 238.043C241.699 241.754 234.635 243.674 226.758 243.805ZM228.516 128.57L214.551 128.766L214.355 219.391H226.758C231.706 219.391 235.872 217.665 239.258 214.215C242.643 210.764 244.336 206.63 244.336 201.812V144.195C244.336 139.964 242.773 136.285 239.648 133.16C236.523 129.97 232.812 128.44 228.516 128.57ZM349.707 244H285.059C284.538 244 284.277 243.674 284.277 243.023L284.473 105.621C284.473 105.1 284.733 104.84 285.254 104.84H349.512C350.033 104.84 350.293 105.165 350.293 105.816V128.18C350.293 128.701 350.033 128.961 349.512 128.961H308.496V160.211H349.512C350.033 160.211 350.293 160.471 350.293 160.992L350.488 183.648C350.488 184.169 350.228 184.43 349.707 184.43H308.496V219.391H349.707C350.228 219.391 350.488 219.716 350.488 220.367V243.219C350.488 243.74 350.228 244 349.707 244Z" fill="white"/>
<path d="M553.34 244H488.691C488.171 244 487.91 243.674 487.91 243.023L488.105 105.621C488.105 105.1 488.366 104.84 488.887 104.84H553.145C553.665 104.84 553.926 105.165 553.926 105.816V128.18C553.926 128.701 553.665 128.961 553.145 128.961H512.129V160.211H553.145C553.665 160.211 553.926 160.471 553.926 160.992L554.121 183.648C554.121 184.169 553.861 184.43 553.34 184.43H512.129V219.391H553.34C553.861 219.391 554.121 219.716 554.121 220.367V243.219C554.121 243.74 553.861 244 553.34 244ZM593.672 244H573.652C572.611 244 572.09 243.544 572.09 242.633L571.895 106.402C571.895 105.361 572.415 104.84 573.457 104.84H591.523L625.312 183.648L624.336 106.402C624.336 105.361 624.922 104.84 626.094 104.84H645.918C646.699 104.84 647.09 105.361 647.09 106.402L647.285 242.828C647.285 243.609 646.96 244 646.309 244H628.73L594.062 170.367L595.527 242.438C595.527 243.479 594.909 244 593.672 244ZM698.652 245.953C691.556 245.953 685.013 244.13 679.023 240.484C673.099 236.839 668.346 231.988 664.766 225.934C661.25 219.814 659.492 213.108 659.492 205.816V196.637C659.492 195.921 659.818 195.562 660.469 195.562H682.93C683.451 195.562 683.711 195.921 683.711 196.637V205.816C683.711 210.178 685.176 213.954 688.105 217.145C691.035 220.27 694.551 221.832 698.652 221.832C702.819 221.832 706.367 220.237 709.297 217.047C712.227 213.792 713.691 210.048 713.691 205.816C713.691 200.934 710.501 196.669 704.121 193.023C703.079 192.372 701.712 191.591 700.02 190.68C698.392 189.703 696.439 188.596 694.16 187.359C691.882 186.122 689.668 184.918 687.52 183.746C685.371 182.509 683.288 181.337 681.27 180.23C673.978 175.934 668.542 170.562 664.961 164.117C661.445 157.607 659.688 150.315 659.688 142.242C659.688 134.82 661.51 128.115 665.156 122.125C668.802 116.201 673.555 111.513 679.414 108.062C685.339 104.547 691.751 102.789 698.652 102.789C705.749 102.789 712.259 104.547 718.184 108.062C724.108 111.643 728.828 116.396 732.344 122.32C735.924 128.245 737.715 134.885 737.715 142.242V158.648C737.715 159.169 737.454 159.43 736.934 159.43H714.473C713.952 159.43 713.691 159.169 713.691 158.648L713.496 142.242C713.496 137.555 712.031 133.746 709.102 130.816C706.172 127.887 702.689 126.422 698.652 126.422C694.551 126.422 691.035 127.984 688.105 131.109C685.176 134.234 683.711 137.945 683.711 142.242C683.711 146.604 684.622 150.25 686.445 153.18C688.333 156.109 691.751 158.909 696.699 161.578C697.22 161.839 698.424 162.49 700.312 163.531C702.201 164.573 704.284 165.745 706.562 167.047C708.906 168.284 711.022 169.423 712.91 170.465C714.798 171.441 715.938 172.027 716.328 172.223C722.969 175.934 728.21 180.491 732.051 185.895C735.957 191.298 737.91 197.939 737.91 205.816C737.91 213.434 736.152 220.27 732.637 226.324C729.056 232.379 724.303 237.164 718.379 240.68C712.454 244.195 705.879 245.953 698.652 245.953ZM817.207 244H752.559C752.038 244 751.777 243.674 751.777 243.023L751.973 105.621C751.973 105.1 752.233 104.84 752.754 104.84H817.012C817.533 104.84 817.793 105.165 817.793 105.816V128.18C817.793 128.701 817.533 128.961 817.012 128.961H775.996V160.211H817.012C817.533 160.211 817.793 160.471 817.793 160.992L817.988 183.648C817.988 184.169 817.728 184.43 817.207 184.43H775.996V219.391H817.207C817.728 219.391 817.988 219.716 817.988 220.367V243.219C817.988 243.74 817.728 244 817.207 244Z" fill="white"/>
</svg>
