<svg width="183" height="103" viewBox="0 0 183 103" fill="none" xmlns="http://www.w3.org/2000/svg">
<path fill-rule="evenodd" clip-rule="evenodd" d="M8.50454 28.1679C4.07191 35.7325 1.92991 43.9508 2.07852 52.8227C2.22986 61.8574 4.56521 70.0414 9.08455 77.3746C13.6039 84.7079 19.6859 90.5494 27.3305 94.8993C34.9738 99.1677 43.5569 101.222 53.08 101.063C62.9287 100.898 71.19 98.3168 77.8639 93.32C84.5391 88.4046 94.6273 73.3771 94.6273 73.3771L83.8817 29.7141C82.5402 32.2605 81.1188 34.8897 79.6173 37.6016C78.1972 40.3121 76.7378 43.1047 75.239 45.9794C73.7402 48.8541 72.3974 51.3191 71.2106 53.3744C70.1065 55.5098 69.1584 57.2354 68.3663 58.5513C63.9419 66.6043 58.6774 70.6819 52.5728 70.7842C47.2822 70.8728 42.5714 69.1198 38.4403 65.5253C34.3907 61.9293 32.3222 57.5268 32.235 52.3176C32.1491 47.1897 34.0289 42.7617 37.8745 39.0336C41.8014 35.304 46.4916 33.3936 51.945 33.3022L63.4215 33.11C64.3168 33.095 64.7591 32.7619 64.7482 32.1108L64.2778 4.02987C64.2641 3.21593 63.8097 2.81646 62.9143 2.83146L51.4378 3.0237C42.3217 3.17641 33.9749 5.51448 26.3975 10.0379C18.9028 14.6414 12.9385 20.6847 8.50454 28.1679Z" fill="#66D9CC"/>
<path d="M83.8817 29.7141C82.5402 32.2605 81.1188 34.8897 79.6173 37.6016C78.1972 40.3121 76.7378 43.1047 75.239 45.9794C73.7402 48.8541 72.3974 51.3191 71.2106 53.3744C70.1065 55.5098 69.1584 57.2354 68.3663 58.5513C63.9419 66.6043 58.6774 70.6819 52.5728 70.7842C47.2822 70.8728 42.5714 69.1198 38.4404 65.5253C34.3907 61.9293 32.3222 57.5268 32.235 52.3176C32.1491 47.1897 34.0289 42.7617 37.8745 39.0336C41.8014 35.304 46.4916 33.3936 51.945 33.3022L63.4215 33.11C64.3169 33.095 64.7591 32.7619 64.7482 32.1108L64.2778 4.02987C64.2641 3.21593 63.8097 2.81646 62.9143 2.83146L51.4378 3.0237C42.3217 3.17641 33.9749 5.51448 26.3975 10.0379C18.9028 14.6414 12.9385 20.6847 8.50454 28.1679C4.07191 35.7325 1.92991 43.9508 2.07852 52.8227C2.22986 61.8574 4.56521 70.0414 9.08455 77.3746C13.6039 84.7079 19.6859 90.5494 27.3305 94.8993C34.9738 99.1678 43.5569 101.222 53.08 101.063C62.9287 100.898 71.19 98.3168 77.8639 93.32C84.5391 88.4046 94.6273 73.3771 94.6273 73.3771M83.8817 29.7141C89.101 20.508 95.7021 13.5992 103.685 8.98751C111.751 4.45589 120.83 2.10555 130.923 1.93649C140.202 1.78106 148.624 3.91965 156.188 8.35228C163.672 12.7863 169.631 18.6299 174.068 25.883C178.587 33.2163 180.919 41.1968 181.064 49.8245C181.212 58.6965 179.151 66.8727 174.88 74.3531C170.527 81.835 164.684 87.8356 157.351 92.3549C150.019 96.9556 141.755 99.3331 132.557 99.4871L112.046 99.8307C111.395 99.8416 111.064 99.5215 111.053 98.8703L110.582 70.7894C110.571 70.1383 110.892 69.8072 111.543 69.7963L132.05 69.2086C137.91 69.1104 142.641 67.1993 146.243 63.4752C149.844 59.7511 151.602 55.3659 151.518 50.3194C151.432 45.1916 149.405 40.8291 145.437 37.2318C141.468 33.6345 136.798 31.8809 131.426 31.9708C125.973 32.0622 121.434 33.2781 117.809 35.6185C114.186 38.0402 110.758 42.372 107.524 48.6139C107.209 49.2705 106.421 50.7899 105.158 53.1721C103.895 55.5544 102.474 58.1835 100.894 61.0596C99.3962 64.0157 98.0161 66.6848 96.7534 69.0671C95.572 71.448 94.6273 73.3771 94.6273 73.3771M83.8817 29.7141L94.6273 73.3771" stroke="#66D9CC" stroke-width="3.75116"/>
</svg>
